<?xml version="1.0" encoding="UTF-8" standalone="no"?>
<!-- Generator: Adobe Illustrator 17.0.1, SVG Export Plug-In . SVG Version: 6.00 Build 0)  -->

<svg
   xmlns:dc="http://purl.org/dc/elements/1.1/"
   xmlns:cc="http://creativecommons.org/ns#"
   xmlns:rdf="http://www.w3.org/1999/02/22-rdf-syntax-ns#"
   xmlns:svg="http://www.w3.org/2000/svg"
   xmlns="http://www.w3.org/2000/svg"
   xmlns:sodipodi="http://sodipodi.sourceforge.net/DTD/sodipodi-0.dtd"
   xmlns:inkscape="http://www.inkscape.org/namespaces/inkscape"
   version="1.1"
   id="Layer_1"
   x="0px"
   y="0px"
   width="185px"
   height="188px"
   viewBox="0 0 185 188"
   enable-background="new 0 0 185 188"
   xml:space="preserve"
   sodipodi:docname="logos.svg"
   inkscape:version="0.92.2 (5c3e80d, 2017-08-06)"
   inkscape:export-filename="C:\Users\stfn\Desktop\Github\sose-conference\img\sprites\logos.png"
   inkscape:export-xdpi="96"
   inkscape:export-ydpi="96"><metadata
     id="metadata235"><rdf:RDF><cc:Work
         rdf:about=""><dc:format>image/svg+xml</dc:format><dc:type
           rdf:resource="http://purl.org/dc/dcmitype/StillImage" /></cc:Work></rdf:RDF></metadata><defs
     id="defs233" /><sodipodi:namedview
     pagecolor="#ffffff"
     bordercolor="#666666"
     borderopacity="1"
     objecttolerance="10"
     gridtolerance="10"
     guidetolerance="10"
     inkscape:pageopacity="0"
     inkscape:pageshadow="2"
     inkscape:window-width="1920"
     inkscape:window-height="1137"
     id="namedview231"
     showgrid="false"
     inkscape:zoom="1.2553191"
     inkscape:cx="53.864407"
     inkscape:cy="94"
     inkscape:window-x="-8"
     inkscape:window-y="-8"
     inkscape:window-maximized="1"
     inkscape:current-layer="flowRoot1042" /><g
     aria-label="SOSE 2018"
     transform="translate(-7.1694915,80.457627)"
     style="font-style:normal;font-weight:normal;font-size:40px;line-height:1.25;font-family:sans-serif;letter-spacing:0px;word-spacing:0px;fill:#4e4e4e;fill-opacity:1;stroke:none"
     id="flowRoot1042"><path
       d="m 27.086797,-62.939879 q -1.32,-1.48 -3.76,-2.4 -2.4,-0.96 -4.48,-0.96 -1.88,0 -3.48,0.72 -1.6,0.68 -2.8,1.92 -1.2,1.24 -1.88,2.92 -0.64,1.64 -0.64,3.48 0,1.72 0.48,3 0.48,1.28 1.36,2.24 0.92,0.92 2.08,1.64 1.2,0.72 2.8,1.36 0.4,0.16 0.48,0.2 1.12,0.44 1.84,0.8 0.76,0.32 1.44,0.84 0.68,0.52 1.08,1.28 0.4,0.76 0.4,1.8 0,1.8 -1.08,3.08 -1.08,1.28 -2.8,1.28 -1.8,0 -3.32,-1.28 -1.48,-1.28 -2.12,-3.12 l -3.8000001,3.72 q 1.6400001,2.76 3.9600001,4.32 2.32,1.56 5.32,1.56 4.56,0 7.24,-2.84 2.68,-2.88 2.68,-7.48 0,-2.08 -0.64,-3.6 -0.64,-1.52 -1.72,-2.52 -1.08,-1 -2.24,-1.6 -1.16,-0.64 -2.88,-1.36 -2.32,-1 -3.4,-1.8 -1.08,-0.8 -1.08,-2.2 0,-1.44 1.12,-2.4 1.12,-1 2.56,-1 1.44,0 2.52,0.64 1.12,0.64 2,1.84 z"
       style="font-style:normal;font-variant:normal;font-weight:900;font-stretch:normal;font-size:40px;font-family:Futura-Heavy;-inkscape-font-specification:'Futura-Heavy, Heavy';font-variant-ligatures:normal;font-variant-caps:normal;font-variant-numeric:normal;font-feature-settings:normal;text-align:start;writing-mode:lr-tb;text-anchor:start;fill:#4e4e4e;fill-opacity:1"
       id="path1106" /><path
       d="m 59.542422,-50.459879 q 0,-3.36 -1.08,-6.24 -1.04,-2.92 -3.04,-5.04 -1.96,-2.16 -4.72,-3.36 -2.76,-1.2 -6.08,-1.2 -3.32,0 -6.08,1.2 -2.76,1.2 -4.76,3.36 -1.96,2.16 -3.04,5.04 -1.04,2.88 -1.04,6.24 0,3.32 1.04,6.24 1.04,2.88 3,5.08 1.96,2.16 4.72,3.4 2.8,1.2 6.16,1.2 3.36,0 6.12,-1.2 2.8,-1.24 4.76,-3.4 1.96,-2.2 3,-5.08 1.04,-2.92 1.04,-6.24 z m -6.08,-0.24 q 0,1.84 -0.48,3.68 -0.48,1.8 -1.56,3.32 -1.04,1.52 -2.76,2.44 -1.72,0.92 -4.04,0.92 -2.32,0 -4.04,-0.92 -1.72,-0.92 -2.8,-2.44 -1.04,-1.52 -1.52,-3.32 -0.48,-1.84 -0.48,-3.68 0,-1.84 0.6,-3.6 0.6,-1.76 1.76,-3.16 1.16,-1.4 2.8,-2.2 1.68,-0.84 3.68,-0.84 2,0 3.64,0.84 1.68,0.8 2.84,2.2 1.16,1.4 1.76,3.16 0.6,1.76 0.6,3.6 z"
       style="font-style:normal;font-variant:normal;font-weight:900;font-stretch:normal;font-size:40px;font-family:Futura-Heavy;-inkscape-font-specification:'Futura-Heavy, Heavy';font-variant-ligatures:normal;font-variant-caps:normal;font-variant-numeric:normal;font-feature-settings:normal;text-align:start;writing-mode:lr-tb;text-anchor:start;fill:#4e4e4e;fill-opacity:1"
       id="path1108" /><path
       d="m 79.352422,-62.939879 q -1.32,-1.48 -3.76,-2.4 -2.4,-0.96 -4.48,-0.96 -1.88,0 -3.48,0.72 -1.6,0.68 -2.8,1.92 -1.2,1.24 -1.88,2.92 -0.64,1.64 -0.64,3.48 0,1.72 0.48,3 0.48,1.28 1.36,2.24 0.92,0.92 2.08,1.64 1.2,0.72 2.8,1.36 0.4,0.16 0.48,0.2 1.12,0.44 1.84,0.8 0.76,0.32 1.44,0.84 0.68,0.52 1.08,1.28 0.4,0.76 0.4,1.8 0,1.8 -1.08,3.08 -1.08,1.28 -2.8,1.28 -1.8,0 -3.32,-1.28 -1.48,-1.28 -2.12,-3.12 l -3.8,3.72 q 1.64,2.76 3.96,4.32 2.32,1.56 5.32,1.56 4.56,0 7.24,-2.84 2.68,-2.88 2.68,-7.48 0,-2.08 -0.64,-3.6 -0.64,-1.52 -1.72,-2.52 -1.08,-1 -2.24,-1.6 -1.16,-0.64 -2.88,-1.36 -2.32,-1 -3.4,-1.8 -1.08,-0.8 -1.08,-2.2 0,-1.44 1.12,-2.4 1.12,-1 2.56,-1 1.44,0 2.52,0.64 1.12,0.64 2,1.84 z"
       style="font-style:normal;font-variant:normal;font-weight:900;font-stretch:normal;font-size:40px;font-family:Futura-Heavy;-inkscape-font-specification:'Futura-Heavy, Heavy';font-variant-ligatures:normal;font-variant-caps:normal;font-variant-numeric:normal;font-feature-settings:normal;text-align:start;writing-mode:lr-tb;text-anchor:start;fill:#4e4e4e;fill-opacity:1"
       id="path1110" /><path
       d="m 99.008047,-60.379879 v -5.12 h -15.6 v 30.16 h 15.6 v -5.12 h -9.72 v -8.16 h 9.36 v -5.12 h -9.36 v -6.64 z"
       style="font-style:normal;font-variant:normal;font-weight:900;font-stretch:normal;font-size:40px;font-family:Futura-Heavy;-inkscape-font-specification:'Futura-Heavy, Heavy';font-variant-ligatures:normal;font-variant-caps:normal;font-variant-numeric:normal;font-feature-settings:normal;text-align:start;writing-mode:lr-tb;text-anchor:start;fill:#4e4e4e;fill-opacity:1"
       id="path1112" /><path
       d="m 113.9018,-35.339879 h 16.52 l 0.16,-1.56 h -13 l 8.32,-8.44 c 4.44,-4.56 5.72,-6.72 5.72,-9.88 0,-4.2 -3.12,-7.32 -7.32,-7.32 -2.92,0 -5.6,1.64 -6.92,4.2 -0.72,1.4 -1.04,2.6 -1.2,4.56 h 1.56 c 0.52,-4.56 2.88,-7.16 6.48,-7.16 3.32,0 5.68,2.44 5.68,5.88 0,2.6 -1.04,4.44 -4.4,7.88 z"
       style="font-style:oblique;font-variant:normal;font-weight:300;font-stretch:normal;font-size:40px;font-family:'Futura T OT';-inkscape-font-specification:'Futura T OT, Light Oblique';font-variant-ligatures:normal;font-variant-caps:normal;font-variant-numeric:normal;font-feature-settings:normal;text-align:start;writing-mode:lr-tb;text-anchor:start;fill:#4e4e4e;fill-opacity:1"
       id="path1114" /><path
       d="m 146.6568,-62.539879 c -5.8,0 -10.76,7.12 -10.76,15.48 0,6.76 3.84,12.24 8.56,12.24 5.84,0 10.96,-7.2 10.96,-15.44 0,-7.16 -3.64,-12.28 -8.76,-12.28 z m 0.04,1.6 c 4,0 7,4.64 7,10.72 0,3.2 -1.04,6.8 -2.76,9.52 -1.6,2.52 -4.16,4.28 -6.28,4.28 -3.84,0 -7.04,-4.92 -7.04,-10.84 0,-7.12 4.36,-13.68 9.08,-13.68 z"
       style="font-style:oblique;font-variant:normal;font-weight:300;font-stretch:normal;font-size:40px;font-family:'Futura T OT';-inkscape-font-specification:'Futura T OT, Light Oblique';font-variant-ligatures:normal;font-variant-caps:normal;font-variant-numeric:normal;font-feature-settings:normal;text-align:start;writing-mode:lr-tb;text-anchor:start;fill:#4e4e4e;fill-opacity:1"
       id="path1116" /><path
       d="m 167.70617,-62.019879 h -4.56 l -0.96,1.56 h 3.64 l -3.12,25.12 h 1.72 z"
       style="font-style:oblique;font-variant:normal;font-weight:300;font-stretch:normal;font-size:40px;font-family:'Futura T OT';-inkscape-font-specification:'Futura T OT, Light Oblique';font-variant-ligatures:normal;font-variant-caps:normal;font-variant-numeric:normal;font-feature-settings:normal;text-align:start;writing-mode:lr-tb;text-anchor:start;fill:#4e4e4e;fill-opacity:1"
       id="path1118" /><path
       d="m 186.5818,-49.059879 c 1.84,-0.68 2.64,-1.16 3.52,-2.16 1.12,-1.32 1.76,-2.96 1.76,-4.64 0,-3.84 -2.88,-6.68 -6.84,-6.68 -4.16,0 -7.56,3.24 -7.56,7.2 0,2.56 1.2,4.44 3.8,6 -1.68,0.6 -2.4,1 -3.32,1.76 -1.72,1.52 -2.72,3.56 -2.72,5.76 0,4 3.2,7 7.48,7 4.56,0 8,-3.44 8,-7.92 0,-1.8 -0.6,-3.44 -1.68,-4.6 -0.6,-0.64 -1.16,-1.04 -2.44,-1.72 z m -1.64,-11.88 c 2.92,0 5.2,2.28 5.2,5.24 0,3.2 -2.6,5.8 -5.8,5.8 -2.8,0 -5.16,-2.44 -5.16,-5.32 0,-3.08 2.64,-5.72 5.76,-5.72 z m -1.44,12.52 c 3.24,0 5.48,2.36 5.48,5.72 0,3.52 -2.8,6.28 -6.28,6.28 -3.36,0 -5.76,-2.32 -5.76,-5.56 0,-3.56 2.96,-6.44 6.56,-6.44 z"
       style="font-style:oblique;font-variant:normal;font-weight:300;font-stretch:normal;font-size:40px;font-family:'Futura T OT';-inkscape-font-specification:'Futura T OT, Light Oblique';font-variant-ligatures:normal;font-variant-caps:normal;font-variant-numeric:normal;font-feature-settings:normal;text-align:start;writing-mode:lr-tb;text-anchor:start;fill:#4e4e4e;fill-opacity:1"
       id="path1120" /></g><g
     aria-label="SOSE 2018"
     transform="translate(-6.7641314,143.62327)"
     style="font-style:normal;font-weight:normal;font-size:40px;line-height:1.25;font-family:sans-serif;letter-spacing:0px;word-spacing:0px;fill:#4e4e4e;fill-opacity:1;stroke:none"
     id="flowRoot1042-1"><path
       d="m 27.086797,-62.939879 q -1.32,-1.48 -3.76,-2.4 -2.4,-0.96 -4.48,-0.96 -1.88,0 -3.48,0.72 -1.6,0.68 -2.8,1.92 -1.2,1.24 -1.88,2.92 -0.64,1.64 -0.64,3.48 0,1.72 0.48,3 0.48,1.28 1.36,2.24 0.92,0.92 2.08,1.64 1.2,0.72 2.8,1.36 0.4,0.16 0.48,0.2 1.12,0.44 1.84,0.8 0.76,0.32 1.44,0.84 0.68,0.52 1.08,1.28 0.4,0.76 0.4,1.8 0,1.8 -1.08,3.08 -1.08,1.28 -2.8,1.28 -1.8,0 -3.32,-1.28 -1.48,-1.28 -2.12,-3.12 l -3.8000001,3.72 q 1.6400001,2.76 3.9600001,4.32 2.32,1.56 5.32,1.56 4.56,0 7.24,-2.84 2.68,-2.88 2.68,-7.48 0,-2.08 -0.64,-3.6 -0.64,-1.52 -1.72,-2.52 -1.08,-1 -2.24,-1.6 -1.16,-0.64 -2.88,-1.36 -2.32,-1 -3.4,-1.8 -1.08,-0.8 -1.08,-2.2 0,-1.44 1.12,-2.4 1.12,-1 2.56,-1 1.44,0 2.52,0.64 1.12,0.64 2,1.84 z"
       style="font-style:normal;font-variant:normal;font-weight:900;font-stretch:normal;font-size:40px;font-family:Futura-Heavy;-inkscape-font-specification:'Futura-Heavy, Heavy';font-variant-ligatures:normal;font-variant-caps:normal;font-variant-numeric:normal;font-feature-settings:normal;text-align:start;writing-mode:lr-tb;text-anchor:start;fill:#4e4e4e;fill-opacity:1"
       id="path1123" /><path
       d="m 59.542422,-50.459879 q 0,-3.36 -1.08,-6.24 -1.04,-2.92 -3.04,-5.04 -1.96,-2.16 -4.72,-3.36 -2.76,-1.2 -6.08,-1.2 -3.32,0 -6.08,1.2 -2.76,1.2 -4.76,3.36 -1.96,2.16 -3.04,5.04 -1.04,2.88 -1.04,6.24 0,3.32 1.04,6.24 1.04,2.88 3,5.08 1.96,2.16 4.72,3.4 2.8,1.2 6.16,1.2 3.36,0 6.12,-1.2 2.8,-1.24 4.76,-3.4 1.96,-2.2 3,-5.08 1.04,-2.92 1.04,-6.24 z m -6.08,-0.24 q 0,1.84 -0.48,3.68 -0.48,1.8 -1.56,3.32 -1.04,1.52 -2.76,2.44 -1.72,0.92 -4.04,0.92 -2.32,0 -4.04,-0.92 -1.72,-0.92 -2.8,-2.44 -1.04,-1.52 -1.52,-3.32 -0.48,-1.84 -0.48,-3.68 0,-1.84 0.6,-3.6 0.6,-1.76 1.76,-3.16 1.16,-1.4 2.8,-2.2 1.68,-0.84 3.68,-0.84 2,0 3.64,0.84 1.68,0.8 2.84,2.2 1.16,1.4 1.76,3.16 0.6,1.76 0.6,3.6 z"
       style="font-style:normal;font-variant:normal;font-weight:900;font-stretch:normal;font-size:40px;font-family:Futura-Heavy;-inkscape-font-specification:'Futura-Heavy, Heavy';font-variant-ligatures:normal;font-variant-caps:normal;font-variant-numeric:normal;font-feature-settings:normal;text-align:start;writing-mode:lr-tb;text-anchor:start;fill:#4e4e4e;fill-opacity:1"
       id="path1125" /><path
       d="m 79.352422,-62.939879 q -1.32,-1.48 -3.76,-2.4 -2.4,-0.96 -4.48,-0.96 -1.88,0 -3.48,0.72 -1.6,0.68 -2.8,1.92 -1.2,1.24 -1.88,2.92 -0.64,1.64 -0.64,3.48 0,1.72 0.48,3 0.48,1.28 1.36,2.24 0.92,0.92 2.08,1.64 1.2,0.72 2.8,1.36 0.4,0.16 0.48,0.2 1.12,0.44 1.84,0.8 0.76,0.32 1.44,0.84 0.68,0.52 1.08,1.28 0.4,0.76 0.4,1.8 0,1.8 -1.08,3.08 -1.08,1.28 -2.8,1.28 -1.8,0 -3.32,-1.28 -1.48,-1.28 -2.12,-3.12 l -3.8,3.72 q 1.64,2.76 3.96,4.32 2.32,1.56 5.32,1.56 4.56,0 7.24,-2.84 2.68,-2.88 2.68,-7.48 0,-2.08 -0.64,-3.6 -0.64,-1.52 -1.72,-2.52 -1.08,-1 -2.24,-1.6 -1.16,-0.64 -2.88,-1.36 -2.32,-1 -3.4,-1.8 -1.08,-0.8 -1.08,-2.2 0,-1.44 1.12,-2.4 1.12,-1 2.56,-1 1.44,0 2.52,0.64 1.12,0.64 2,1.84 z"
       style="font-style:normal;font-variant:normal;font-weight:900;font-stretch:normal;font-size:40px;font-family:Futura-Heavy;-inkscape-font-specification:'Futura-Heavy, Heavy';font-variant-ligatures:normal;font-variant-caps:normal;font-variant-numeric:normal;font-feature-settings:normal;text-align:start;writing-mode:lr-tb;text-anchor:start;fill:#4e4e4e;fill-opacity:1"
       id="path1127" /><path
       d="m 99.008047,-60.379879 v -5.12 h -15.6 v 30.16 h 15.6 v -5.12 h -9.72 v -8.16 h 9.36 v -5.12 h -9.36 v -6.64 z"
       style="font-style:normal;font-variant:normal;font-weight:900;font-stretch:normal;font-size:40px;font-family:Futura-Heavy;-inkscape-font-specification:'Futura-Heavy, Heavy';font-variant-ligatures:normal;font-variant-caps:normal;font-variant-numeric:normal;font-feature-settings:normal;text-align:start;writing-mode:lr-tb;text-anchor:start;fill:#4e4e4e;fill-opacity:1"
       id="path1129" /><path
       d="m 113.9018,-35.339879 h 16.52 l 0.16,-1.56 h -13 l 8.32,-8.44 c 4.44,-4.56 5.72,-6.72 5.72,-9.88 0,-4.2 -3.12,-7.32 -7.32,-7.32 -2.92,0 -5.6,1.64 -6.92,4.2 -0.72,1.4 -1.04,2.6 -1.2,4.56 h 1.56 c 0.52,-4.56 2.88,-7.16 6.48,-7.16 3.32,0 5.68,2.44 5.68,5.88 0,2.6 -1.04,4.44 -4.4,7.88 z"
       style="font-style:oblique;font-variant:normal;font-weight:300;font-stretch:normal;font-size:40px;font-family:'Futura T OT';-inkscape-font-specification:'Futura T OT, Light Oblique';font-variant-ligatures:normal;font-variant-caps:normal;font-variant-numeric:normal;font-feature-settings:normal;text-align:start;writing-mode:lr-tb;text-anchor:start;fill:#4e4e4e;fill-opacity:1"
       id="path1131" /><path
       d="m 146.6568,-62.539879 c -5.8,0 -10.76,7.12 -10.76,15.48 0,6.76 3.84,12.24 8.56,12.24 5.84,0 10.96,-7.2 10.96,-15.44 0,-7.16 -3.64,-12.28 -8.76,-12.28 z m 0.04,1.6 c 4,0 7,4.64 7,10.72 0,3.2 -1.04,6.8 -2.76,9.52 -1.6,2.52 -4.16,4.28 -6.28,4.28 -3.84,0 -7.04,-4.92 -7.04,-10.84 0,-7.12 4.36,-13.68 9.08,-13.68 z"
       style="font-style:oblique;font-variant:normal;font-weight:300;font-stretch:normal;font-size:40px;font-family:'Futura T OT';-inkscape-font-specification:'Futura T OT, Light Oblique';font-variant-ligatures:normal;font-variant-caps:normal;font-variant-numeric:normal;font-feature-settings:normal;text-align:start;writing-mode:lr-tb;text-anchor:start;fill:#4e4e4e;fill-opacity:1"
       id="path1133" /><path
       d="m 167.70617,-62.019879 h -4.56 l -0.96,1.56 h 3.64 l -3.12,25.12 h 1.72 z"
       style="font-style:oblique;font-variant:normal;font-weight:300;font-stretch:normal;font-size:40px;font-family:'Futura T OT';-inkscape-font-specification:'Futura T OT, Light Oblique';font-variant-ligatures:normal;font-variant-caps:normal;font-variant-numeric:normal;font-feature-settings:normal;text-align:start;writing-mode:lr-tb;text-anchor:start;fill:#4e4e4e;fill-opacity:1"
       id="path1135" /><path
       d="m 186.5818,-49.059879 c 1.84,-0.68 2.64,-1.16 3.52,-2.16 1.12,-1.32 1.76,-2.96 1.76,-4.64 0,-3.84 -2.88,-6.68 -6.84,-6.68 -4.16,0 -7.56,3.24 -7.56,7.2 0,2.56 1.2,4.44 3.8,6 -1.68,0.6 -2.4,1 -3.32,1.76 -1.72,1.52 -2.72,3.56 -2.72,5.76 0,4 3.2,7 7.48,7 4.56,0 8,-3.44 8,-7.92 0,-1.8 -0.6,-3.44 -1.68,-4.6 -0.6,-0.64 -1.16,-1.04 -2.44,-1.72 z m -1.64,-11.88 c 2.92,0 5.2,2.28 5.2,5.24 0,3.2 -2.6,5.8 -5.8,5.8 -2.8,0 -5.16,-2.44 -5.16,-5.32 0,-3.08 2.64,-5.72 5.76,-5.72 z m -1.44,12.52 c 3.24,0 5.48,2.36 5.48,5.72 0,3.52 -2.8,6.28 -6.28,6.28 -3.36,0 -5.76,-2.32 -5.76,-5.56 0,-3.56 2.96,-6.44 6.56,-6.44 z"
       style="font-style:oblique;font-variant:normal;font-weight:300;font-stretch:normal;font-size:40px;font-family:'Futura T OT';-inkscape-font-specification:'Futura T OT, Light Oblique';font-variant-ligatures:normal;font-variant-caps:normal;font-variant-numeric:normal;font-feature-settings:normal;text-align:start;writing-mode:lr-tb;text-anchor:start;fill:#4e4e4e;fill-opacity:1"
       id="path1137" /></g><g
     aria-label="SOSE 2018"
     transform="translate(-8.3742965,204.16564)"
     style="font-style:normal;font-weight:normal;font-size:40px;line-height:1.25;font-family:sans-serif;letter-spacing:0px;word-spacing:0px;fill:#e6e6e5;fill-opacity:1;stroke:none"
     id="flowRoot1042-1-0"><path
       d="m 27.086797,-62.939879 q -1.32,-1.48 -3.76,-2.4 -2.4,-0.96 -4.48,-0.96 -1.88,0 -3.48,0.72 -1.6,0.68 -2.8,1.92 -1.2,1.24 -1.88,2.92 -0.64,1.64 -0.64,3.48 0,1.72 0.48,3 0.48,1.28 1.36,2.24 0.92,0.92 2.08,1.64 1.2,0.72 2.8,1.36 0.4,0.16 0.48,0.2 1.12,0.44 1.84,0.8 0.76,0.32 1.44,0.84 0.68,0.52 1.08,1.28 0.4,0.76 0.4,1.8 0,1.8 -1.08,3.08 -1.08,1.28 -2.8,1.28 -1.8,0 -3.32,-1.28 -1.48,-1.28 -2.12,-3.12 l -3.8000001,3.72 q 1.6400001,2.76 3.9600001,4.32 2.32,1.56 5.32,1.56 4.56,0 7.24,-2.84 2.68,-2.88 2.68,-7.48 0,-2.08 -0.64,-3.6 -0.64,-1.52 -1.72,-2.52 -1.08,-1 -2.24,-1.6 -1.16,-0.64 -2.88,-1.36 -2.32,-1 -3.4,-1.8 -1.08,-0.8 -1.08,-2.2 0,-1.44 1.12,-2.4 1.12,-1 2.56,-1 1.44,0 2.52,0.64 1.12,0.64 2,1.84 z"
       style="font-style:normal;font-variant:normal;font-weight:900;font-stretch:normal;font-size:40px;font-family:Futura-Heavy;-inkscape-font-specification:'Futura-Heavy, Heavy';font-variant-ligatures:normal;font-variant-caps:normal;font-variant-numeric:normal;font-feature-settings:normal;text-align:start;writing-mode:lr-tb;text-anchor:start;fill:#e6e6e5;fill-opacity:1"
       id="path1140" /><path
       d="m 59.542422,-50.459879 q 0,-3.36 -1.08,-6.24 -1.04,-2.92 -3.04,-5.04 -1.96,-2.16 -4.72,-3.36 -2.76,-1.2 -6.08,-1.2 -3.32,0 -6.08,1.2 -2.76,1.2 -4.76,3.36 -1.96,2.16 -3.04,5.04 -1.04,2.88 -1.04,6.24 0,3.32 1.04,6.24 1.04,2.88 3,5.08 1.96,2.16 4.72,3.4 2.8,1.2 6.16,1.2 3.36,0 6.12,-1.2 2.8,-1.24 4.76,-3.4 1.96,-2.2 3,-5.08 1.04,-2.92 1.04,-6.24 z m -6.08,-0.24 q 0,1.84 -0.48,3.68 -0.48,1.8 -1.56,3.32 -1.04,1.52 -2.76,2.44 -1.72,0.92 -4.04,0.92 -2.32,0 -4.04,-0.92 -1.72,-0.92 -2.8,-2.44 -1.04,-1.52 -1.52,-3.32 -0.48,-1.84 -0.48,-3.68 0,-1.84 0.6,-3.6 0.6,-1.76 1.76,-3.16 1.16,-1.4 2.8,-2.2 1.68,-0.84 3.68,-0.84 2,0 3.64,0.84 1.68,0.8 2.84,2.2 1.16,1.4 1.76,3.16 0.6,1.76 0.6,3.6 z"
       style="font-style:normal;font-variant:normal;font-weight:900;font-stretch:normal;font-size:40px;font-family:Futura-Heavy;-inkscape-font-specification:'Futura-Heavy, Heavy';font-variant-ligatures:normal;font-variant-caps:normal;font-variant-numeric:normal;font-feature-settings:normal;text-align:start;writing-mode:lr-tb;text-anchor:start;fill:#e6e6e5;fill-opacity:1"
       id="path1142" /><path
       d="m 79.352422,-62.939879 q -1.32,-1.48 -3.76,-2.4 -2.4,-0.96 -4.48,-0.96 -1.88,0 -3.48,0.72 -1.6,0.68 -2.8,1.92 -1.2,1.24 -1.88,2.92 -0.64,1.64 -0.64,3.48 0,1.72 0.48,3 0.48,1.28 1.36,2.24 0.92,0.92 2.08,1.64 1.2,0.72 2.8,1.36 0.4,0.16 0.48,0.2 1.12,0.44 1.84,0.8 0.76,0.32 1.44,0.84 0.68,0.52 1.08,1.28 0.4,0.76 0.4,1.8 0,1.8 -1.08,3.08 -1.08,1.28 -2.8,1.28 -1.8,0 -3.32,-1.28 -1.48,-1.28 -2.12,-3.12 l -3.8,3.72 q 1.64,2.76 3.96,4.32 2.32,1.56 5.32,1.56 4.56,0 7.24,-2.84 2.68,-2.88 2.68,-7.48 0,-2.08 -0.64,-3.6 -0.64,-1.52 -1.72,-2.52 -1.08,-1 -2.24,-1.6 -1.16,-0.64 -2.88,-1.36 -2.32,-1 -3.4,-1.8 -1.08,-0.8 -1.08,-2.2 0,-1.44 1.12,-2.4 1.12,-1 2.56,-1 1.44,0 2.52,0.64 1.12,0.64 2,1.84 z"
       style="font-style:normal;font-variant:normal;font-weight:900;font-stretch:normal;font-size:40px;font-family:Futura-Heavy;-inkscape-font-specification:'Futura-Heavy, Heavy';font-variant-ligatures:normal;font-variant-caps:normal;font-variant-numeric:normal;font-feature-settings:normal;text-align:start;writing-mode:lr-tb;text-anchor:start;fill:#e6e6e5;fill-opacity:1"
       id="path1144" /><path
       d="m 99.008047,-60.379879 v -5.12 h -15.6 v 30.16 h 15.6 v -5.12 h -9.72 v -8.16 h 9.36 v -5.12 h -9.36 v -6.64 z"
       style="font-style:normal;font-variant:normal;font-weight:900;font-stretch:normal;font-size:40px;font-family:Futura-Heavy;-inkscape-font-specification:'Futura-Heavy, Heavy';font-variant-ligatures:normal;font-variant-caps:normal;font-variant-numeric:normal;font-feature-settings:normal;text-align:start;writing-mode:lr-tb;text-anchor:start;fill:#e6e6e5;fill-opacity:1"
       id="path1146" /><path
       d="m 113.9018,-35.339879 h 16.52 l 0.16,-1.56 h -13 l 8.32,-8.44 c 4.44,-4.56 5.72,-6.72 5.72,-9.88 0,-4.2 -3.12,-7.32 -7.32,-7.32 -2.92,0 -5.6,1.64 -6.92,4.2 -0.72,1.4 -1.04,2.6 -1.2,4.56 h 1.56 c 0.52,-4.56 2.88,-7.16 6.48,-7.16 3.32,0 5.68,2.44 5.68,5.88 0,2.6 -1.04,4.44 -4.4,7.88 z"
       style="font-style:oblique;font-variant:normal;font-weight:300;font-stretch:normal;font-size:40px;font-family:'Futura T OT';-inkscape-font-specification:'Futura T OT, Light Oblique';font-variant-ligatures:normal;font-variant-caps:normal;font-variant-numeric:normal;font-feature-settings:normal;text-align:start;writing-mode:lr-tb;text-anchor:start;fill:#e6e6e5;fill-opacity:1"
       id="path1148" /><path
       d="m 146.6568,-62.539879 c -5.8,0 -10.76,7.12 -10.76,15.48 0,6.76 3.84,12.24 8.56,12.24 5.84,0 10.96,-7.2 10.96,-15.44 0,-7.16 -3.64,-12.28 -8.76,-12.28 z m 0.04,1.6 c 4,0 7,4.64 7,10.72 0,3.2 -1.04,6.8 -2.76,9.52 -1.6,2.52 -4.16,4.28 -6.28,4.28 -3.84,0 -7.04,-4.92 -7.04,-10.84 0,-7.12 4.36,-13.68 9.08,-13.68 z"
       style="font-style:oblique;font-variant:normal;font-weight:300;font-stretch:normal;font-size:40px;font-family:'Futura T OT';-inkscape-font-specification:'Futura T OT, Light Oblique';font-variant-ligatures:normal;font-variant-caps:normal;font-variant-numeric:normal;font-feature-settings:normal;text-align:start;writing-mode:lr-tb;text-anchor:start;fill:#e6e6e5;fill-opacity:1"
       id="path1150" /><path
       d="m 167.70617,-62.019879 h -4.56 l -0.96,1.56 h 3.64 l -3.12,25.12 h 1.72 z"
       style="font-style:oblique;font-variant:normal;font-weight:300;font-stretch:normal;font-size:40px;font-family:'Futura T OT';-inkscape-font-specification:'Futura T OT, Light Oblique';font-variant-ligatures:normal;font-variant-caps:normal;font-variant-numeric:normal;font-feature-settings:normal;text-align:start;writing-mode:lr-tb;text-anchor:start;fill:#e6e6e5;fill-opacity:1"
       id="path1152" /><path
       d="m 186.5818,-49.059879 c 1.84,-0.68 2.64,-1.16 3.52,-2.16 1.12,-1.32 1.76,-2.96 1.76,-4.64 0,-3.84 -2.88,-6.68 -6.84,-6.68 -4.16,0 -7.56,3.24 -7.56,7.2 0,2.56 1.2,4.44 3.8,6 -1.68,0.6 -2.4,1 -3.32,1.76 -1.72,1.52 -2.72,3.56 -2.72,5.76 0,4 3.2,7 7.48,7 4.56,0 8,-3.44 8,-7.92 0,-1.8 -0.6,-3.44 -1.68,-4.6 -0.6,-0.64 -1.16,-1.04 -2.44,-1.72 z m -1.64,-11.88 c 2.92,0 5.2,2.28 5.2,5.24 0,3.2 -2.6,5.8 -5.8,5.8 -2.8,0 -5.16,-2.44 -5.16,-5.32 0,-3.08 2.64,-5.72 5.76,-5.72 z m -1.44,12.52 c 3.24,0 5.48,2.36 5.48,5.72 0,3.52 -2.8,6.28 -6.28,6.28 -3.36,0 -5.76,-2.32 -5.76,-5.56 0,-3.56 2.96,-6.44 6.56,-6.44 z"
       style="font-style:oblique;font-variant:normal;font-weight:300;font-stretch:normal;font-size:40px;font-family:'Futura T OT';-inkscape-font-specification:'Futura T OT, Light Oblique';font-variant-ligatures:normal;font-variant-caps:normal;font-variant-numeric:normal;font-feature-settings:normal;text-align:start;writing-mode:lr-tb;text-anchor:start;fill:#e6e6e5;fill-opacity:1"
       id="path1154" /></g></svg>